<?xml version="1.0" encoding="UTF-8" ?>
<!DOCTYPE svg PUBLIC "-//W3C//DTD SVG 1.1//EN" "http://www.w3.org/Graphics/SVG/1.1/DTD/svg11.dtd">
<svg width="964pt" height="451pt" viewBox="0 0 964 451" version="1.1" xmlns="http://www.w3.org/2000/svg">
<g id="#ffffffff">
<path fill="#ffffff" opacity="1.00" d=" M 161.47 0.00 L 963.66 0.00 C 952.49 31.57 941.09 63.07 929.59 94.52 C 662.22 94.46 394.85 94.55 127.48 94.48 C 127.64 93.84 127.97 92.56 128.13 91.92 C 138.65 62.77 149.16 33.62 159.67 4.47 C 160.21 2.96 160.74 1.43 161.47 0.00 Z" />
<path fill="#ffffff" opacity="1.00" d=" M 0.45 451.00 C 40.66 339.53 80.79 228.03 121.01 116.57 C 171.39 116.56 221.77 116.55 272.15 116.57 C 284.04 179.21 295.87 241.87 307.75 304.52 C 330.45 241.87 353.09 179.21 375.81 116.57 C 415.37 116.56 454.93 116.56 494.49 116.57 C 454.31 228.05 414.15 339.53 373.94 451.00 L 222.78 451.00 C 211.50 390.33 200.22 329.65 188.93 268.98 C 188.66 267.26 188.12 265.55 188.21 263.80 C 187.75 263.48 187.21 263.50 186.70 263.68 L 187.39 264.38 C 164.99 326.56 142.76 388.80 120.41 451.00 L 0.45 451.00 Z" />
<path fill="#ffffff" opacity="1.00" d=" M 519.35 116.62 C 558.90 116.44 598.47 116.65 638.03 116.52 C 597.88 228.03 557.64 339.52 517.41 451.00 L 398.85 451.00 C 438.92 339.51 479.29 228.12 519.35 116.62 Z" />
<path fill="#ffffff" opacity="1.00" d=" M 661.35 116.61 C 700.90 116.40 740.47 116.64 780.02 116.48 C 739.90 228.02 699.65 339.51 659.40 451.00 L 540.85 451.00 C 580.92 339.50 621.30 228.11 661.35 116.61 Z" />
<path fill="#ffffff" opacity="1.00" d=" M 804.35 116.62 C 843.91 116.44 883.47 116.65 923.03 116.52 C 882.88 228.03 842.65 339.52 802.40 451.00 L 683.85 451.00 C 723.92 339.51 764.29 228.12 804.35 116.62 Z" />
</g>
</svg>
